<svg xmlns="http://www.w3.org/2000/svg" xmlns:xlink="http://www.w3.org/1999/xlink" xmlns:lucid="lucid" width="1460" height="973.6"><g transform="translate(-220.00000000000003 -200)" lucid:page-tab-id="0_0"><path d="M240 226c0-3.3 2.7-6 6-6h328c3.3 0 6 2.7 6 6v102.4c0 3.3-2.7 6-6 6H246c-3.3 0-6-2.7-6-6z" stroke="#000" stroke-width="3" fill="#fff"/><use xlink:href="#a" transform="matrix(1,0,0,1,252.00000000000003,232) translate(30.15000000000002 28.799999999999997)"/><use xlink:href="#b" transform="matrix(1,0,0,1,252.00000000000003,232) translate(174.05 28.799999999999997)"/><use xlink:href="#c" transform="matrix(1,0,0,1,252.00000000000003,232) translate(214.05 28.799999999999997)"/><use xlink:href="#d" transform="matrix(1,0,0,1,252.00000000000003,232) translate(64.10000000000002 72)"/><use xlink:href="#e" transform="matrix(1,0,0,1,252.00000000000003,232) translate(193.9 72)"/><path d="M240 486c0-3.3 2.7-6 6-6h328c3.3 0 6 2.7 6 6v102.4c0 3.3-2.7 6-6 6H246c-3.3 0-6-2.7-6-6z" stroke="#000" stroke-width="3" fill="#fff"/><use xlink:href="#f" transform="matrix(1,0,0,1,252.00000000000003,492) translate(33.15000000000002 28.799999999999997)"/><use xlink:href="#g" transform="matrix(1,0,0,1,252.00000000000003,492) translate(184.95 28.799999999999997)"/><use xlink:href="#h" transform="matrix(1,0,0,1,252.00000000000003,492) translate(4.150000000000034 72)"/><use xlink:href="#i" transform="matrix(1,0,0,1,252.00000000000003,492) translate(85.95000000000002 72)"/><use xlink:href="#j" transform="matrix(1,0,0,1,252.00000000000003,492) translate(145.95 72)"/><use xlink:href="#k" transform="matrix(1,0,0,1,252.00000000000003,492) translate(241.84999999999997 72)"/><path d="M1140 493.2c0-3.3 2.7-6 6-6h508c3.3 0 6 2.7 6 6v88c0 3.3-2.7 6-6 6h-508c-3.3 0-6-2.7-6-6z" stroke="#000" stroke-width="3" fill="#fff"/><use xlink:href="#l" transform="matrix(1,0,0,1,1152,499.20000000000005) translate(5.500000000000057 28.799999999999997)"/><use xlink:href="#m" transform="matrix(1,0,0,1,1152,499.20000000000005) translate(143.20000000000002 28.799999999999997)"/><use xlink:href="#n" transform="matrix(1,0,0,1,1152,499.20000000000005) translate(225.10000000000002 28.799999999999997)"/><use xlink:href="#o" transform="matrix(1,0,0,1,1152,499.20000000000005) translate(404.59999999999997 28.799999999999997)"/><use xlink:href="#p" transform="matrix(1,0,0,1,1152,499.20000000000005) translate(194.15 72)"/><use xlink:href="#q" transform="matrix(1,0,0,1,1152,499.20000000000005) translate(224.15 72)"/><path d="M640 473.4c0-3.3 2.7-6 6-6h408c3.3 0 6 2.7 6 6V601c0 3.3-2.7 6-6 6H646c-3.3 0-6-2.7-6-6z" stroke="#000" stroke-width="3" fill="#fff"/><use xlink:href="#r" transform="matrix(1,0,0,1,652,479.40000000000003) translate(51.10000000000002 43.3)"/><use xlink:href="#s" transform="matrix(1,0,0,1,652,479.40000000000003) translate(201 43.3)"/><use xlink:href="#t" transform="matrix(1,0,0,1,652,479.40000000000003) translate(314.9 43.3)"/><use xlink:href="#u" transform="matrix(1,0,0,1,652,479.40000000000003) translate(21.05000000000004 86.5)"/><use xlink:href="#i" transform="matrix(1,0,0,1,652,479.40000000000003) translate(169.05 86.5)"/><use xlink:href="#v" transform="matrix(1,0,0,1,652,479.40000000000003) translate(229.04999999999998 86.5)"/><path d="M1230 746.4c0-3.3 2.7-6 6-6h328c3.3 0 6 2.7 6 6V888c0 3.3-2.7 6-6 6h-328c-3.3 0-6-2.7-6-6z" stroke="#000" stroke-width="3" fill="#fff"/><use xlink:href="#w" transform="matrix(1,0,0,1,1242,752.4000000000001) translate(63.20000000000002 28.799999999999997)"/><use xlink:href="#x" transform="matrix(1,0,0,1,1242,752.4000000000001) translate(206.9 28.799999999999997)"/><use xlink:href="#y" transform="matrix(1,0,0,1,1242,752.4000000000001) translate(19.450000000000017 72)"/><use xlink:href="#z" transform="matrix(1,0,0,1,1242,752.4000000000001) translate(192.75 72)"/><use xlink:href="#A" transform="matrix(1,0,0,1,1242,752.4000000000001) translate(65.00000000000003 115.19999999999999)"/><use xlink:href="#B" transform="matrix(1,0,0,1,1242,752.4000000000001) translate(105.00000000000003 115.19999999999999)"/><use xlink:href="#C" transform="matrix(1,0,0,1,1242,752.4000000000001) translate(165 115.19999999999999)"/><path d="M660 724.8c0-3.3 2.7-6 6-6h368c3.3 0 6 2.7 6 6v184.8c0 3.3-2.7 6-6 6H666c-3.3 0-6-2.7-6-6z" stroke="#000" stroke-width="3" fill="#fff"/><g><use xlink:href="#l" transform="matrix(1,0,0,1,672,730.8000000000001) translate(63.150000000000034 28.799999999999997)"/><use xlink:href="#D" transform="matrix(1,0,0,1,672,730.8000000000001) translate(200.85 28.799999999999997)"/><use xlink:href="#E" transform="matrix(1,0,0,1,672,730.8000000000001) translate(17.400000000000034 72)"/><use xlink:href="#F" transform="matrix(1,0,0,1,672,730.8000000000001) translate(186.9 72)"/><use xlink:href="#G" transform="matrix(1,0,0,1,672,730.8000000000001) translate(288.59999999999997 72)"/><use xlink:href="#H" transform="matrix(1,0,0,1,672,730.8000000000001) translate(46.05000000000001 115.19999999999999)"/><use xlink:href="#I" transform="matrix(1,0,0,1,672,730.8000000000001) translate(203.95 115.19999999999999)"/><use xlink:href="#J" transform="matrix(1,0,0,1,672,730.8000000000001) translate(76.20000000000002 158.39999999999998)"/><use xlink:href="#p" transform="matrix(1,0,0,1,672,730.8000000000001) translate(172.10000000000002 158.39999999999998)"/><use xlink:href="#q" transform="matrix(1,0,0,1,672,730.8000000000001) translate(202.1 158.39999999999998)"/></g><path d="M660 1006c0-3.3 2.7-6 6-6h368c3.3 0 6 2.7 6 6v141.6c0 3.3-2.7 6-6 6H666c-3.3 0-6-2.7-6-6z" stroke="#000" stroke-width="3" fill="#fff"/><g><use xlink:href="#K" transform="matrix(1,0,0,1,672,1012) translate(72.90000000000002 28.799999999999997)"/><use xlink:href="#L" transform="matrix(1,0,0,1,672,1012) translate(195.2 28.799999999999997)"/><use xlink:href="#M" transform="matrix(1,0,0,1,672,1012) translate(27.200000000000017 72)"/><use xlink:href="#N" transform="matrix(1,0,0,1,672,1012) translate(174.89999999999998 72)"/><use xlink:href="#O" transform="matrix(1,0,0,1,672,1012) translate(212.79999999999998 72)"/><use xlink:href="#P" transform="matrix(1,0,0,1,672,1012) translate(298.79999999999995 72)"/><use xlink:href="#Q" transform="matrix(1,0,0,1,672,1012) translate(68.25000000000001 115.19999999999999)"/><use xlink:href="#R" transform="matrix(1,0,0,1,672,1012) translate(156.05 115.19999999999999)"/></g><path d="M582.5 537.2H620" stroke="#000" stroke-width="2" fill="none"/><path d="M582.53 538.2h-1.03v-2h1.03z"/><path d="M635.26 537.2L621 541.84v-9.28z" stroke="#000" stroke-width="2"/><path d="M410 336.9V460" stroke="#000" stroke-width="2" fill="none"/><path d="M411 336.93h-2v-1.03h2z"/><path d="M410 475.26L405.36 461h9.28z" stroke="#000" stroke-width="2"/><path d="M1400 589.7v130.7" stroke="#000" stroke-width="2" fill="none"/><path d="M1401 589.73h-2v-1.03h2z"/><path d="M1400 735.66l-4.64-14.26h9.28z" stroke="#000" stroke-width="2"/><path d="M850 918.1V980" stroke="#000" stroke-width="2" fill="none"/><path d="M851 918.13h-2v-1.03h2z"/><path d="M850 995.26L845.36 981h9.28z" stroke="#000" stroke-width="2"/><path d="M1062.5 537.2h57.5" stroke="#000" stroke-width="2" fill="none"/><path d="M1062.53 538.2h-1.03v-2h1.03z"/><path d="M1135.26 537.2l-14.26 4.64v-9.28z" stroke="#000" stroke-width="2"/><path d="M1227.5 817.2H1060" stroke="#000" stroke-width="2" fill="none"/><path d="M1228.5 818.2h-1.03v-2h1.03z"/><path d="M1044.74 817.2l14.26-4.64v9.28z" stroke="#000" stroke-width="2"/><path d="M657.5 817.2H416c-3.3 0-6-2.7-6-6V614.4" stroke="#000" stroke-width="2" fill="none"/><path d="M658.5 818.2h-1.03v-2h1.03z"/><path d="M410 599.14l4.64 14.26h-9.28z" stroke="#000" stroke-width="2"/><defs><path d="M212-179c-10-28-35-45-73-45-59 0-87 40-87 99 0 60 29 101 89 101 43 0 62-24 78-52l27 14C228-24 195 4 139 4 59 4 22-46 18-125c-6-104 99-153 187-111 19 9 31 26 39 46" id="S"/><path d="M100-194c62-1 85 37 85 99 1 63-27 99-86 99S16-35 15-95c0-66 28-99 85-99zM99-20c44 1 53-31 53-75 0-43-8-75-51-75s-53 32-53 75 10 74 51 75" id="T"/><path d="M117-194c89-4 53 116 60 194h-32v-121c0-31-8-49-39-48C34-167 62-67 57 0H25l-1-190h30c1 10-1 24 2 32 11-22 29-35 61-36" id="U"/><path d="M100-194c63 0 86 42 84 106H49c0 40 14 67 53 68 26 1 43-12 49-29l28 8c-11 28-37 45-77 45C44 4 14-33 15-96c1-61 26-98 85-98zm52 81c6-60-76-77-97-28-3 7-6 17-6 28h103" id="V"/><path d="M96-169c-40 0-48 33-48 73s9 75 48 75c24 0 41-14 43-38l32 2c-6 37-31 61-74 61-59 0-76-41-82-99-10-93 101-131 147-64 4 7 5 14 7 22l-32 3c-4-21-16-35-41-35" id="W"/><path d="M59-47c-2 24 18 29 38 22v24C64 9 27 4 27-40v-127H5v-23h24l9-43h21v43h35v23H59v120" id="X"/><g id="a"><use transform="matrix(0.09999999999999998,0,0,0.09999999999999998,0,0)" xlink:href="#S"/><use transform="matrix(0.09999999999999998,0,0,0.09999999999999998,25.899999999999995,0)" xlink:href="#T"/><use transform="matrix(0.09999999999999998,0,0,0.09999999999999998,45.89999999999999,0)" xlink:href="#U"/><use transform="matrix(0.09999999999999998,0,0,0.09999999999999998,65.89999999999999,0)" xlink:href="#U"/><use transform="matrix(0.09999999999999998,0,0,0.09999999999999998,85.89999999999999,0)" xlink:href="#V"/><use transform="matrix(0.09999999999999998,0,0,0.09999999999999998,105.9,0)" xlink:href="#W"/><use transform="matrix(0.09999999999999998,0,0,0.09999999999999998,123.89999999999999,0)" xlink:href="#X"/></g><g id="b"><use transform="matrix(0.09999999999999998,0,0,0.09999999999999998,0,0)" xlink:href="#X"/><use transform="matrix(0.09999999999999998,0,0,0.09999999999999998,9.999999999999998,0)" xlink:href="#T"/></g><path d="M209 0H11v-25l151-195H24v-28h176v25L50-27h159V0" id="Y"/><path d="M30 0v-248h187v28H63v79h144v27H63v87h162V0H30" id="Z"/><path d="M30-248c118-7 216 8 213 122C240-48 200 0 122 0H30v-248zM63-27c89 8 146-16 146-99s-60-101-146-95v194" id="aa"/><g id="c"><use transform="matrix(0.09999999999999998,0,0,0.09999999999999998,0,0)" xlink:href="#Y"/><use transform="matrix(0.09999999999999998,0,0,0.09999999999999998,21.899999999999995,0)" xlink:href="#Z"/><use transform="matrix(0.09999999999999998,0,0,0.09999999999999998,45.89999999999999,0)" xlink:href="#aa"/></g><path d="M141-36C126-15 110 5 73 4 37 3 15-17 15-53c-1-64 63-63 125-63 3-35-9-54-41-54-24 1-41 7-42 31l-33-3c5-37 33-52 76-52 45 0 72 20 72 64v82c-1 20 7 32 28 27v20c-31 9-61-2-59-35zM48-53c0 20 12 33 32 33 41-3 63-29 60-74-43 2-92-5-92 41" id="ab"/><path d="M210-169c-67 3-38 105-44 169h-31v-121c0-29-5-50-35-48C34-165 62-65 56 0H25l-1-190h30c1 10-1 24 2 32 10-44 99-50 107 0 11-21 27-35 58-36 85-2 47 119 55 194h-31v-121c0-29-5-49-35-48" id="ac"/><path d="M114-163C36-179 61-72 57 0H25l-1-190h30c1 12-1 29 2 39 6-27 23-49 58-41v29" id="ad"/><g id="d"><use transform="matrix(0.09999999999999998,0,0,0.09999999999999998,0,0)" xlink:href="#W"/><use transform="matrix(0.09999999999999998,0,0,0.09999999999999998,17.999999999999996,0)" xlink:href="#ab"/><use transform="matrix(0.09999999999999998,0,0,0.09999999999999998,37.99999999999999,0)" xlink:href="#ac"/><use transform="matrix(0.09999999999999998,0,0,0.09999999999999998,67.89999999999999,0)" xlink:href="#V"/><use transform="matrix(0.09999999999999998,0,0,0.09999999999999998,87.89999999999999,0)" xlink:href="#ad"/><use transform="matrix(0.09999999999999998,0,0,0.09999999999999998,99.79999999999998,0)" xlink:href="#ab"/></g><path d="M205 0l-28-72H64L36 0H1l101-248h38L239 0h-34zm-38-99l-47-123c-12 45-31 82-46 123h93" id="ae"/><path d="M30-248c87 1 191-15 191 75 0 78-77 80-158 76V0H30v-248zm33 125c57 0 124 11 124-50 0-59-68-47-124-48v98" id="af"/><path d="M33 0v-248h34V0H33" id="ag"/><g id="e"><use transform="matrix(0.09999999999999998,0,0,0.09999999999999998,0,0)" xlink:href="#ae"/><use transform="matrix(0.09999999999999998,0,0,0.09999999999999998,23.999999999999993,0)" xlink:href="#af"/><use transform="matrix(0.09999999999999998,0,0,0.09999999999999998,47.999999999999986,0)" xlink:href="#ag"/></g><path d="M240-174c0 40-23 61-54 70L253 0h-59l-57-94H76V0H24v-248c93 4 217-23 216 74zM76-134c48-2 112 12 112-38 0-48-66-32-112-35v73" id="ah"/><path d="M185-48c-13 30-37 53-82 52C43 2 14-33 14-96s30-98 90-98c62 0 83 45 84 108H66c0 31 8 55 39 56 18 0 30-7 34-22zm-45-69c5-46-57-63-70-21-2 6-4 13-4 21h74" id="ai"/><path d="M115-3C79 11 28 4 28-45v-112H4v-33h27l15-45h31v45h36v33H77v99c-1 23 16 31 38 25v30" id="aj"/><path d="M135-150c-39-12-60 13-60 57V0H25l-1-190h47c2 13-1 29 3 40 6-28 27-53 61-41v41" id="ak"/><path d="M25-224v-37h50v37H25zM25 0v-190h50V0H25" id="al"/><path d="M128 0H69L1-190h53L99-40l48-150h52" id="am"/><g id="f"><use transform="matrix(0.09999999999999998,0,0,0.09999999999999998,0,0)" xlink:href="#ah"/><use transform="matrix(0.09999999999999998,0,0,0.09999999999999998,25.899999999999995,0)" xlink:href="#ai"/><use transform="matrix(0.09999999999999998,0,0,0.09999999999999998,45.89999999999999,0)" xlink:href="#aj"/><use transform="matrix(0.09999999999999998,0,0,0.09999999999999998,57.79999999999999,0)" xlink:href="#ak"/><use transform="matrix(0.09999999999999998,0,0,0.09999999999999998,71.79999999999998,0)" xlink:href="#ai"/><use transform="matrix(0.09999999999999998,0,0,0.09999999999999998,91.79999999999998,0)" xlink:href="#al"/><use transform="matrix(0.09999999999999998,0,0,0.09999999999999998,101.79999999999998,0)" xlink:href="#am"/><use transform="matrix(0.09999999999999998,0,0,0.09999999999999998,121.79999999999997,0)" xlink:href="#ai"/></g><path d="M121-226c-27-7-43 5-38 36h38v33H83V0H34v-157H6v-33h28c-9-59 32-81 87-68v32" id="an"/><path d="M133-34C117-15 103 5 69 4 32 3 11-16 11-54c-1-60 55-63 116-61 1-26-3-47-28-47-18 1-26 9-28 27l-52-2c7-38 36-58 82-57s74 22 75 68l1 82c-1 14 12 18 25 15v27c-30 8-71 5-69-32zm-48 3c29 0 43-24 42-57-32 0-66-3-65 30 0 17 8 27 23 27" id="ao"/><path d="M220-157c-53 9-28 100-34 157h-49v-107c1-27-5-49-29-50C55-147 81-57 75 0H25l-1-190h47c2 12-1 28 3 38 10-53 101-56 108 0 13-22 24-43 59-42 82 1 51 116 57 194h-49v-107c-1-25-5-48-29-50" id="ap"/><g id="g"><use transform="matrix(0.09999999999999998,0,0,0.09999999999999998,0,0)" xlink:href="#an"/><use transform="matrix(0.09999999999999998,0,0,0.09999999999999998,11.899999999999997,0)" xlink:href="#ak"/><use transform="matrix(0.09999999999999998,0,0,0.09999999999999998,25.899999999999995,0)" xlink:href="#ao"/><use transform="matrix(0.09999999999999998,0,0,0.09999999999999998,45.89999999999999,0)" xlink:href="#ap"/><use transform="matrix(0.09999999999999998,0,0,0.09999999999999998,77.89999999999998,0)" xlink:href="#ai"/></g><path d="M101-234c-31-9-42 10-38 44h38v23H63V0H32v-167H5v-23h27c-7-52 17-82 69-68v24" id="aq"/><g id="h"><use transform="matrix(0.09999999999999998,0,0,0.09999999999999998,0,0)" xlink:href="#aq"/><use transform="matrix(0.09999999999999998,0,0,0.09999999999999998,9.999999999999998,0)" xlink:href="#ad"/><use transform="matrix(0.09999999999999998,0,0,0.09999999999999998,21.899999999999995,0)" xlink:href="#T"/><use transform="matrix(0.09999999999999998,0,0,0.09999999999999998,41.89999999999999,0)" xlink:href="#ac"/></g><path d="M106-169C34-169 62-67 57 0H25v-261h32l-1 103c12-21 28-36 61-36 89 0 53 116 60 194h-32v-121c2-32-8-49-39-48" id="ar"/><g id="i"><use transform="matrix(0.09999999999999998,0,0,0.09999999999999998,0,0)" xlink:href="#X"/><use transform="matrix(0.09999999999999998,0,0,0.09999999999999998,9.999999999999998,0)" xlink:href="#ar"/><use transform="matrix(0.09999999999999998,0,0,0.09999999999999998,29.999999999999993,0)" xlink:href="#V"/></g><path d="M108 0H70L1-190h34L89-25l56-165h34" id="as"/><path d="M24-231v-30h32v30H24zM24 0v-190h32V0H24" id="at"/><path d="M85-194c31 0 48 13 60 33l-1-100h32l1 261h-30c-2-10 0-23-3-31C134-8 116 4 85 4 32 4 16-35 15-94c0-66 23-100 70-100zm9 24c-40 0-46 34-46 75 0 40 6 74 45 74 42 0 51-32 51-76 0-42-9-74-50-73" id="au"/><g id="j"><use transform="matrix(0.09999999999999998,0,0,0.09999999999999998,0,0)" xlink:href="#as"/><use transform="matrix(0.09999999999999998,0,0,0.09999999999999998,17.999999999999996,0)" xlink:href="#at"/><use transform="matrix(0.09999999999999998,0,0,0.09999999999999998,25.899999999999995,0)" xlink:href="#au"/><use transform="matrix(0.09999999999999998,0,0,0.09999999999999998,45.89999999999999,0)" xlink:href="#V"/><use transform="matrix(0.09999999999999998,0,0,0.09999999999999998,65.89999999999999,0)" xlink:href="#T"/></g><g id="k"><use transform="matrix(0.09999999999999998,0,0,0.09999999999999998,0,0)" xlink:href="#aq"/><use transform="matrix(0.09999999999999998,0,0,0.09999999999999998,9.999999999999998,0)" xlink:href="#V"/><use transform="matrix(0.09999999999999998,0,0,0.09999999999999998,29.999999999999993,0)" xlink:href="#V"/><use transform="matrix(0.09999999999999998,0,0,0.09999999999999998,49.999999999999986,0)" xlink:href="#au"/></g><g id="l"><use transform="matrix(0.09999999999999998,0,0,0.09999999999999998,0,0)" xlink:href="#af"/><use transform="matrix(0.09999999999999998,0,0,0.09999999999999998,23.999999999999993,0)" xlink:href="#V"/><use transform="matrix(0.09999999999999998,0,0,0.09999999999999998,43.999999999999986,0)" xlink:href="#ad"/><use transform="matrix(0.09999999999999998,0,0,0.09999999999999998,55.899999999999984,0)" xlink:href="#aq"/><use transform="matrix(0.09999999999999998,0,0,0.09999999999999998,65.89999999999998,0)" xlink:href="#T"/><use transform="matrix(0.09999999999999998,0,0,0.09999999999999998,85.89999999999998,0)" xlink:href="#ad"/><use transform="matrix(0.09999999999999998,0,0,0.09999999999999998,97.79999999999997,0)" xlink:href="#ac"/></g><path d="M190-63c-7 42-38 67-86 67-59 0-84-38-90-98-12-110 154-137 174-36l-49 2c-2-19-15-32-35-32-30 0-35 28-38 64-6 74 65 87 74 30" id="av"/><g id="m"><use transform="matrix(0.09999999999999998,0,0,0.09999999999999998,0,0)" xlink:href="#an"/><use transform="matrix(0.09999999999999998,0,0,0.09999999999999998,11.899999999999997,0)" xlink:href="#ao"/><use transform="matrix(0.09999999999999998,0,0,0.09999999999999998,31.89999999999999,0)" xlink:href="#av"/><use transform="matrix(0.09999999999999998,0,0,0.09999999999999998,51.89999999999999,0)" xlink:href="#ai"/></g><path d="M88-194c31-1 46 15 58 34l-1-101h50l1 261h-48c-2-10 0-23-3-31C134-8 116 4 84 4 32 4 16-41 15-95c0-56 19-97 73-99zm17 164c33 0 40-30 41-66 1-37-9-64-41-64s-38 30-39 65c0 43 13 65 39 65" id="aw"/><path d="M110-194c64 0 96 36 96 99 0 64-35 99-97 99-61 0-95-36-95-99 0-62 34-99 96-99zm-1 164c35 0 45-28 45-65 0-40-10-65-43-65-34 0-45 26-45 65 0 36 10 65 43 65" id="ax"/><path d="M135-194c87-1 58 113 63 194h-50c-7-57 23-157-34-157-59 0-34 97-39 157H25l-1-190h47c2 12-1 28 3 38 12-26 28-41 61-42" id="ay"/><path d="M68-38c1 34 0 65-14 84H32c9-13 17-26 17-46H33v-38h35" id="az"/><g id="n"><use transform="matrix(0.09999999999999998,0,0,0.09999999999999998,0,0)" xlink:href="#aw"/><use transform="matrix(0.09999999999999998,0,0,0.09999999999999998,21.899999999999995,0)" xlink:href="#ai"/><use transform="matrix(0.09999999999999998,0,0,0.09999999999999998,41.89999999999999,0)" xlink:href="#aj"/><use transform="matrix(0.09999999999999998,0,0,0.09999999999999998,53.79999999999999,0)" xlink:href="#ai"/><use transform="matrix(0.09999999999999998,0,0,0.09999999999999998,73.79999999999998,0)" xlink:href="#av"/><use transform="matrix(0.09999999999999998,0,0,0.09999999999999998,93.79999999999998,0)" xlink:href="#aj"/><use transform="matrix(0.09999999999999998,0,0,0.09999999999999998,105.69999999999997,0)" xlink:href="#al"/><use transform="matrix(0.09999999999999998,0,0,0.09999999999999998,115.69999999999997,0)" xlink:href="#ax"/><use transform="matrix(0.09999999999999998,0,0,0.09999999999999998,137.59999999999997,0)" xlink:href="#ay"/><use transform="matrix(0.09999999999999998,0,0,0.09999999999999998,159.49999999999997,0)" xlink:href="#az"/></g><path d="M84 4C-5 8 30-112 23-190h32v120c0 31 7 50 39 49 72-2 45-101 50-169h31l1 190h-30c-1-10 1-25-2-33-11 22-28 36-60 37" id="aA"/><path d="M135-143c-3-34-86-38-87 0 15 53 115 12 119 90S17 21 10-45l28-5c4 36 97 45 98 0-10-56-113-15-118-90-4-57 82-63 122-42 12 7 21 19 24 35" id="aB"/><path d="M177-190C167-65 218 103 67 71c-23-6-38-20-44-43l32-5c15 47 100 32 89-28v-30C133-14 115 1 83 1 29 1 15-40 15-95c0-56 16-97 71-98 29-1 48 16 59 35 1-10 0-23 2-32h30zM94-22c36 0 50-32 50-73 0-42-14-75-50-75-39 0-46 34-46 75s6 73 46 73" id="aC"/><g id="o"><use transform="matrix(0.09999999999999998,0,0,0.09999999999999998,0,0)" xlink:href="#aA"/><use transform="matrix(0.09999999999999998,0,0,0.09999999999999998,19.999999999999996,0)" xlink:href="#aB"/><use transform="matrix(0.09999999999999998,0,0,0.09999999999999998,37.99999999999999,0)" xlink:href="#at"/><use transform="matrix(0.09999999999999998,0,0,0.09999999999999998,45.89999999999999,0)" xlink:href="#U"/><use transform="matrix(0.09999999999999998,0,0,0.09999999999999998,65.89999999999999,0)" xlink:href="#aC"/></g><use transform="matrix(0.09999999999999998,0,0,0.09999999999999998,0,0)" xlink:href="#ab" id="p"/><path d="M190 0L58-211 59 0H30v-248h39L202-35l-2-213h31V0h-41" id="aD"/><g id="q"><use transform="matrix(0.09999999999999998,0,0,0.09999999999999998,0,0)" xlink:href="#S"/><use transform="matrix(0.09999999999999998,0,0,0.09999999999999998,25.899999999999995,0)" xlink:href="#aD"/><use transform="matrix(0.09999999999999998,0,0,0.09999999999999998,51.79999999999999,0)" xlink:href="#aD"/></g><path d="M24-248c93 1 206-16 204 79-1 75-69 88-152 82V0H24v-248zm52 121c47 0 100 7 100-41 0-47-54-39-100-39v80" id="aE"/><path d="M137-138c1-29-70-34-71-4 15 46 118 7 119 86 1 83-164 76-172 9l43-7c4 19 20 25 44 25 33 8 57-30 24-41C81-84 22-81 20-136c-2-80 154-74 161-7" id="aF"/><g id="r"><use transform="matrix(0.09999999999999998,0,0,0.09999999999999998,0,0)" xlink:href="#aE"/><use transform="matrix(0.09999999999999998,0,0,0.09999999999999998,23.999999999999993,0)" xlink:href="#ak"/><use transform="matrix(0.09999999999999998,0,0,0.09999999999999998,37.999999999999986,0)" xlink:href="#ax"/><use transform="matrix(0.09999999999999998,0,0,0.09999999999999998,59.89999999999998,0)" xlink:href="#av"/><use transform="matrix(0.09999999999999998,0,0,0.09999999999999998,79.89999999999998,0)" xlink:href="#ai"/><use transform="matrix(0.09999999999999998,0,0,0.09999999999999998,99.89999999999998,0)" xlink:href="#aF"/><use transform="matrix(0.09999999999999998,0,0,0.09999999999999998,119.89999999999998,0)" xlink:href="#aF"/></g><path d="M195-6C206 82 75 100 31 46c-4-6-6-13-8-21l49-6c3 16 16 24 34 25 40 0 42-37 40-79-11 22-30 35-61 35-53 0-70-43-70-97 0-56 18-96 73-97 30 0 46 14 59 34l2-30h47zm-90-29c32 0 41-27 41-63 0-35-9-62-40-62-32 0-39 29-40 63 0 36 9 62 39 62" id="aG"/><g id="s"><use transform="matrix(0.09999999999999998,0,0,0.09999999999999998,0,0)" xlink:href="#al"/><use transform="matrix(0.09999999999999998,0,0,0.09999999999999998,9.999999999999998,0)" xlink:href="#ap"/><use transform="matrix(0.09999999999999998,0,0,0.09999999999999998,41.99999999999999,0)" xlink:href="#ao"/><use transform="matrix(0.09999999999999998,0,0,0.09999999999999998,61.999999999999986,0)" xlink:href="#aG"/><use transform="matrix(0.09999999999999998,0,0,0.09999999999999998,83.89999999999998,0)" xlink:href="#ai"/></g><g id="t"><use transform="matrix(0.09999999999999998,0,0,0.09999999999999998,0,0)" xlink:href="#X"/><use transform="matrix(0.09999999999999998,0,0,0.09999999999999998,9.999999999999998,0)" xlink:href="#T"/></g><g id="u"><use transform="matrix(0.09999999999999998,0,0,0.09999999999999998,0,0)" xlink:href="#V"/><use transform="matrix(0.09999999999999998,0,0,0.09999999999999998,19.999999999999996,0)" xlink:href="#U"/><use transform="matrix(0.09999999999999998,0,0,0.09999999999999998,39.99999999999999,0)" xlink:href="#ar"/><use transform="matrix(0.09999999999999998,0,0,0.09999999999999998,59.999999999999986,0)" xlink:href="#ab"/><use transform="matrix(0.09999999999999998,0,0,0.09999999999999998,79.99999999999999,0)" xlink:href="#U"/><use transform="matrix(0.09999999999999998,0,0,0.09999999999999998,99.99999999999999,0)" xlink:href="#W"/><use transform="matrix(0.09999999999999998,0,0,0.09999999999999998,118,0)" xlink:href="#V"/></g><g id="v"><use transform="matrix(0.09999999999999998,0,0,0.09999999999999998,0,0)" xlink:href="#au"/><use transform="matrix(0.09999999999999998,0,0,0.09999999999999998,19.999999999999996,0)" xlink:href="#V"/><use transform="matrix(0.09999999999999998,0,0,0.09999999999999998,39.99999999999999,0)" xlink:href="#X"/><use transform="matrix(0.09999999999999998,0,0,0.09999999999999998,49.99999999999999,0)" xlink:href="#V"/><use transform="matrix(0.09999999999999998,0,0,0.09999999999999998,69.99999999999999,0)" xlink:href="#W"/><use transform="matrix(0.09999999999999998,0,0,0.09999999999999998,87.99999999999999,0)" xlink:href="#X"/><use transform="matrix(0.09999999999999998,0,0,0.09999999999999998,97.99999999999999,0)" xlink:href="#at"/><use transform="matrix(0.09999999999999998,0,0,0.09999999999999998,105.89999999999998,0)" xlink:href="#T"/><use transform="matrix(0.09999999999999998,0,0,0.09999999999999998,125.89999999999998,0)" xlink:href="#U"/></g><path d="M233-177c-1 41-23 64-60 70L243 0h-38l-65-103H63V0H30v-248c88 3 205-21 203 71zM63-129c60-2 137 13 137-47 0-61-80-42-137-45v92" id="aH"/><g id="w"><use transform="matrix(0.09999999999999998,0,0,0.09999999999999998,0,0)" xlink:href="#aH"/><use transform="matrix(0.09999999999999998,0,0,0.09999999999999998,25.899999999999995,0)" xlink:href="#V"/><use transform="matrix(0.09999999999999998,0,0,0.09999999999999998,45.89999999999999,0)" xlink:href="#X"/><use transform="matrix(0.09999999999999998,0,0,0.09999999999999998,55.899999999999984,0)" xlink:href="#ad"/><use transform="matrix(0.09999999999999998,0,0,0.09999999999999998,67.79999999999998,0)" xlink:href="#V"/><use transform="matrix(0.09999999999999998,0,0,0.09999999999999998,87.79999999999998,0)" xlink:href="#at"/><use transform="matrix(0.09999999999999998,0,0,0.09999999999999998,95.69999999999999,0)" xlink:href="#as"/><use transform="matrix(0.09999999999999998,0,0,0.09999999999999998,113.7,0)" xlink:href="#V"/></g><path d="M182-182c0 78-84 86-111 141h115V0H12c-6-101 99-100 120-180 1-22-12-31-33-32-23 0-32 14-35 34l-49-3c5-45 32-70 84-70 51 0 83 22 83 69" id="aI"/><path d="M24-248c120-7 223 5 221 122C244-46 201 0 124 0H24v-248zM76-40c74 7 117-18 117-86 0-67-45-88-117-82v168" id="aJ"/><g id="x"><use transform="matrix(0.09999999999999998,0,0,0.09999999999999998,0,0)" xlink:href="#aI"/><use transform="matrix(0.09999999999999998,0,0,0.09999999999999998,19.999999999999996,0)" xlink:href="#aJ"/></g><path d="M135-194c52 0 70 43 70 98 0 56-19 99-73 100-30 1-46-15-58-35L72 0H24l1-261h50v104c11-23 29-37 60-37zM114-30c31 0 40-27 40-66 0-37-7-63-39-63s-41 28-41 65c0 36 8 64 40 64" id="aK"/><path d="M85 4C-2 5 27-109 22-190h50c7 57-23 150 33 157 60-5 35-97 40-157h50l1 190h-47c-2-12 1-28-3-38-12 25-28 42-61 42" id="aL"/><g id="y"><use transform="matrix(0.09999999999999998,0,0,0.09999999999999998,0,0)" xlink:href="#aK"/><use transform="matrix(0.09999999999999998,0,0,0.09999999999999998,21.899999999999995,0)" xlink:href="#ax"/><use transform="matrix(0.09999999999999998,0,0,0.09999999999999998,43.79999999999999,0)" xlink:href="#aL"/><use transform="matrix(0.09999999999999998,0,0,0.09999999999999998,65.69999999999999,0)" xlink:href="#ay"/><use transform="matrix(0.09999999999999998,0,0,0.09999999999999998,87.59999999999998,0)" xlink:href="#aw"/><use transform="matrix(0.09999999999999998,0,0,0.09999999999999998,109.49999999999997,0)" xlink:href="#al"/><use transform="matrix(0.09999999999999998,0,0,0.09999999999999998,119.49999999999997,0)" xlink:href="#ay"/><use transform="matrix(0.09999999999999998,0,0,0.09999999999999998,141.39999999999998,0)" xlink:href="#aG"/></g><path d="M144 0l-44-69L55 0H2l70-98-66-92h53l41 62 40-62h54l-67 91 71 99h-54" id="aM"/><g id="z"><use transform="matrix(0.09999999999999998,0,0,0.09999999999999998,0,0)" xlink:href="#aK"/><use transform="matrix(0.09999999999999998,0,0,0.09999999999999998,21.899999999999995,0)" xlink:href="#ax"/><use transform="matrix(0.09999999999999998,0,0,0.09999999999999998,43.79999999999999,0)" xlink:href="#aM"/><use transform="matrix(0.09999999999999998,0,0,0.09999999999999998,63.79999999999998,0)" xlink:href="#ai"/><use transform="matrix(0.09999999999999998,0,0,0.09999999999999998,83.79999999999998,0)" xlink:href="#aF"/></g><g id="A"><use transform="matrix(0.09999999999999998,0,0,0.09999999999999998,0,0)" xlink:href="#T"/><use transform="matrix(0.09999999999999998,0,0,0.09999999999999998,19.999999999999996,0)" xlink:href="#aq"/></g><g id="B"><use transform="matrix(0.09999999999999998,0,0,0.09999999999999998,0,0)" xlink:href="#X"/><use transform="matrix(0.09999999999999998,0,0,0.09999999999999998,9.999999999999998,0)" xlink:href="#ar"/><use transform="matrix(0.09999999999999998,0,0,0.09999999999999998,29.999999999999993,0)" xlink:href="#V"/></g><g id="C"><use transform="matrix(0.09999999999999998,0,0,0.09999999999999998,0,0)" xlink:href="#aq"/><use transform="matrix(0.09999999999999998,0,0,0.09999999999999998,9.999999999999998,0)" xlink:href="#ab"/><use transform="matrix(0.09999999999999998,0,0,0.09999999999999998,29.999999999999993,0)" xlink:href="#W"/><use transform="matrix(0.09999999999999998,0,0,0.09999999999999998,47.999999999999986,0)" xlink:href="#V"/><use transform="matrix(0.09999999999999998,0,0,0.09999999999999998,67.99999999999999,0)" xlink:href="#aB"/></g><path d="M147 0L96-86 75-71V0H25v-261h50v150l67-79h53l-66 74L201 0h-54" id="aN"/><g id="D"><use transform="matrix(0.09999999999999998,0,0,0.09999999999999998,0,0)" xlink:href="#ap"/><use transform="matrix(0.09999999999999998,0,0,0.09999999999999998,31.999999999999993,0)" xlink:href="#ao"/><use transform="matrix(0.09999999999999998,0,0,0.09999999999999998,51.999999999999986,0)" xlink:href="#aF"/><use transform="matrix(0.09999999999999998,0,0,0.09999999999999998,71.99999999999999,0)" xlink:href="#aN"/></g><g id="E"><use transform="matrix(0.09999999999999998,0,0,0.09999999999999998,0,0)" xlink:href="#aw"/><use transform="matrix(0.09999999999999998,0,0,0.09999999999999998,21.899999999999995,0)" xlink:href="#ai"/><use transform="matrix(0.09999999999999998,0,0,0.09999999999999998,41.89999999999999,0)" xlink:href="#aj"/><use transform="matrix(0.09999999999999998,0,0,0.09999999999999998,53.79999999999999,0)" xlink:href="#ai"/><use transform="matrix(0.09999999999999998,0,0,0.09999999999999998,73.79999999999998,0)" xlink:href="#av"/><use transform="matrix(0.09999999999999998,0,0,0.09999999999999998,93.79999999999998,0)" xlink:href="#aj"/><use transform="matrix(0.09999999999999998,0,0,0.09999999999999998,105.69999999999997,0)" xlink:href="#al"/><use transform="matrix(0.09999999999999998,0,0,0.09999999999999998,115.69999999999997,0)" xlink:href="#ax"/><use transform="matrix(0.09999999999999998,0,0,0.09999999999999998,137.59999999999997,0)" xlink:href="#ay"/></g><path d="M206 0h-36l-40-164L89 0H53L-1-190h32L70-26l43-164h34l41 164 42-164h31" id="aO"/><g id="F"><use transform="matrix(0.09999999999999998,0,0,0.09999999999999998,0,0)" xlink:href="#aO"/><use transform="matrix(0.09999999999999998,0,0,0.09999999999999998,25.899999999999995,0)" xlink:href="#at"/><use transform="matrix(0.09999999999999998,0,0,0.09999999999999998,33.8,0)" xlink:href="#X"/><use transform="matrix(0.09999999999999998,0,0,0.09999999999999998,43.8,0)" xlink:href="#ar"/><use transform="matrix(0.09999999999999998,0,0,0.09999999999999998,63.8,0)" xlink:href="#at"/><use transform="matrix(0.09999999999999998,0,0,0.09999999999999998,71.69999999999999,0)" xlink:href="#U"/></g><g id="G"><use transform="matrix(0.09999999999999998,0,0,0.09999999999999998,0,0)" xlink:href="#X"/><use transform="matrix(0.09999999999999998,0,0,0.09999999999999998,9.999999999999998,0)" xlink:href="#ar"/><use transform="matrix(0.09999999999999998,0,0,0.09999999999999998,29.999999999999993,0)" xlink:href="#V"/></g><path d="M115-194c53 0 69 39 70 98 0 66-23 100-70 100C84 3 66-7 56-30L54 0H23l1-261h32v101c10-23 28-34 59-34zm-8 174c40 0 45-34 45-75 0-40-5-75-45-74-42 0-51 32-51 76 0 43 10 73 51 73" id="aP"/><g id="H"><use transform="matrix(0.09999999999999998,0,0,0.09999999999999998,0,0)" xlink:href="#aP"/><use transform="matrix(0.09999999999999998,0,0,0.09999999999999998,19.999999999999996,0)" xlink:href="#T"/><use transform="matrix(0.09999999999999998,0,0,0.09999999999999998,39.99999999999999,0)" xlink:href="#aA"/><use transform="matrix(0.09999999999999998,0,0,0.09999999999999998,59.999999999999986,0)" xlink:href="#U"/><use transform="matrix(0.09999999999999998,0,0,0.09999999999999998,79.99999999999999,0)" xlink:href="#au"/><use transform="matrix(0.09999999999999998,0,0,0.09999999999999998,99.99999999999999,0)" xlink:href="#at"/><use transform="matrix(0.09999999999999998,0,0,0.09999999999999998,107.89999999999998,0)" xlink:href="#U"/><use transform="matrix(0.09999999999999998,0,0,0.09999999999999998,127.89999999999998,0)" xlink:href="#aC"/></g><path d="M141 0L90-78 38 0H4l68-98-65-92h35l48 74 47-74h35l-64 92 68 98h-35" id="aQ"/><g id="I"><use transform="matrix(0.09999999999999998,0,0,0.09999999999999998,0,0)" xlink:href="#aP"/><use transform="matrix(0.09999999999999998,0,0,0.09999999999999998,19.999999999999996,0)" xlink:href="#T"/><use transform="matrix(0.09999999999999998,0,0,0.09999999999999998,39.99999999999999,0)" xlink:href="#aQ"/><use transform="matrix(0.09999999999999998,0,0,0.09999999999999998,57.999999999999986,0)" xlink:href="#V"/><use transform="matrix(0.09999999999999998,0,0,0.09999999999999998,77.99999999999999,0)" xlink:href="#aB"/><use transform="matrix(0.09999999999999998,0,0,0.09999999999999998,95.99999999999999,0)" xlink:href="#az"/></g><g id="J"><use transform="matrix(0.09999999999999998,0,0,0.09999999999999998,0,0)" xlink:href="#aA"/><use transform="matrix(0.09999999999999998,0,0,0.09999999999999998,19.999999999999996,0)" xlink:href="#aB"/><use transform="matrix(0.09999999999999998,0,0,0.09999999999999998,37.99999999999999,0)" xlink:href="#at"/><use transform="matrix(0.09999999999999998,0,0,0.09999999999999998,45.89999999999999,0)" xlink:href="#U"/><use transform="matrix(0.09999999999999998,0,0,0.09999999999999998,65.89999999999999,0)" xlink:href="#aC"/></g><path d="M127-220V0H93v-220H8v-28h204v28h-85" id="aR"/><g id="K"><use transform="matrix(0.09999999999999998,0,0,0.09999999999999998,0,0)" xlink:href="#aR"/><use transform="matrix(0.09999999999999998,0,0,0.09999999999999998,20.599999999999994,0)" xlink:href="#ad"/><use transform="matrix(0.09999999999999998,0,0,0.09999999999999998,32.49999999999999,0)" xlink:href="#at"/><use transform="matrix(0.09999999999999998,0,0,0.09999999999999998,40.39999999999999,0)" xlink:href="#aC"/><use transform="matrix(0.09999999999999998,0,0,0.09999999999999998,60.399999999999984,0)" xlink:href="#aC"/><use transform="matrix(0.09999999999999998,0,0,0.09999999999999998,80.39999999999999,0)" xlink:href="#V"/><use transform="matrix(0.09999999999999998,0,0,0.09999999999999998,100.39999999999999,0)" xlink:href="#ad"/></g><g id="L"><use transform="matrix(0.09999999999999998,0,0,0.09999999999999998,0,0)" xlink:href="#ab"/><use transform="matrix(0.09999999999999998,0,0,0.09999999999999998,19.999999999999996,0)" xlink:href="#aA"/><use transform="matrix(0.09999999999999998,0,0,0.09999999999999998,39.99999999999999,0)" xlink:href="#au"/><use transform="matrix(0.09999999999999998,0,0,0.09999999999999998,59.999999999999986,0)" xlink:href="#at"/><use transform="matrix(0.09999999999999998,0,0,0.09999999999999998,67.89999999999998,0)" xlink:href="#T"/></g><path d="M231 0h-52l-39-155L100 0H48L-1-190h46L77-45c9-52 24-97 36-145h53l37 145 32-145h46" id="aS"/><g id="M"><use transform="matrix(0.09999999999999998,0,0,0.09999999999999998,0,0)" xlink:href="#aS"/><use transform="matrix(0.09999999999999998,0,0,0.09999999999999998,27.999999999999993,0)" xlink:href="#ao"/><use transform="matrix(0.09999999999999998,0,0,0.09999999999999998,47.999999999999986,0)" xlink:href="#ak"/><use transform="matrix(0.09999999999999998,0,0,0.09999999999999998,61.999999999999986,0)" xlink:href="#ay"/><use transform="matrix(0.09999999999999998,0,0,0.09999999999999998,83.89999999999998,0)" xlink:href="#al"/><use transform="matrix(0.09999999999999998,0,0,0.09999999999999998,93.89999999999998,0)" xlink:href="#ay"/><use transform="matrix(0.09999999999999998,0,0,0.09999999999999998,115.79999999999997,0)" xlink:href="#aG"/></g><g id="N"><use transform="matrix(0.09999999999999998,0,0,0.09999999999999998,0,0)" xlink:href="#at"/><use transform="matrix(0.09999999999999998,0,0,0.09999999999999998,7.899999999999999,0)" xlink:href="#U"/></g><g id="O"><use transform="matrix(0.09999999999999998,0,0,0.09999999999999998,0,0)" xlink:href="#W"/><use transform="matrix(0.09999999999999998,0,0,0.09999999999999998,17.999999999999996,0)" xlink:href="#ab"/><use transform="matrix(0.09999999999999998,0,0,0.09999999999999998,37.99999999999999,0)" xlink:href="#aB"/><use transform="matrix(0.09999999999999998,0,0,0.09999999999999998,55.999999999999986,0)" xlink:href="#V"/></g><g id="P"><use transform="matrix(0.09999999999999998,0,0,0.09999999999999998,0,0)" xlink:href="#T"/><use transform="matrix(0.09999999999999998,0,0,0.09999999999999998,19.999999999999996,0)" xlink:href="#aq"/></g><path d="M24 0v-261h32V0H24" id="aT"/><g id="Q"><use transform="matrix(0.09999999999999998,0,0,0.09999999999999998,0,0)" xlink:href="#ad"/><use transform="matrix(0.09999999999999998,0,0,0.09999999999999998,11.899999999999997,0)" xlink:href="#aA"/><use transform="matrix(0.09999999999999998,0,0,0.09999999999999998,31.89999999999999,0)" xlink:href="#aT"/><use transform="matrix(0.09999999999999998,0,0,0.09999999999999998,39.79999999999999,0)" xlink:href="#V"/><use transform="matrix(0.09999999999999998,0,0,0.09999999999999998,59.79999999999999,0)" xlink:href="#aB"/></g><g id="R"><use transform="matrix(0.09999999999999998,0,0,0.09999999999999998,0,0)" xlink:href="#as"/><use transform="matrix(0.09999999999999998,0,0,0.09999999999999998,17.999999999999996,0)" xlink:href="#at"/><use transform="matrix(0.09999999999999998,0,0,0.09999999999999998,25.899999999999995,0)" xlink:href="#T"/><use transform="matrix(0.09999999999999998,0,0,0.09999999999999998,45.89999999999999,0)" xlink:href="#aT"/><use transform="matrix(0.09999999999999998,0,0,0.09999999999999998,53.79999999999999,0)" xlink:href="#ab"/><use transform="matrix(0.09999999999999998,0,0,0.09999999999999998,73.79999999999998,0)" xlink:href="#X"/><use transform="matrix(0.09999999999999998,0,0,0.09999999999999998,83.79999999999998,0)" xlink:href="#at"/><use transform="matrix(0.09999999999999998,0,0,0.09999999999999998,91.69999999999999,0)" xlink:href="#T"/><use transform="matrix(0.09999999999999998,0,0,0.09999999999999998,111.7,0)" xlink:href="#U"/></g></defs></g></svg>